{"title":"Ki And Ka (2016) HQ1080p Blu-ray x264 DTS-HDMA 5.1 MSubs -DDR","uid":15104412,"size":13325239443,"categoryP":"video","categoryS":"hd___movies","magnet":"?xt=urn:btih:3d4b62c796f39d0fff830e3a08b5bf6d5899b645&amp;dn=Ki+And+Ka+%282016%29+HQ1080p+Blu-ray+x264+DTS-HDMA+5.1+MSubs+-DDR&amp;tr=udp%3A%2F%2Ftracker.leechers-paradise.org%3A6969&amp;tr=udp%3A%2F%2Fzer0day.ch%3A1337&amp;tr=udp%3A%2F%2Fopen.demonii.com%3A1337&amp;tr=udp%3A%2F%2Ftracker.coppersurfer.tk%3A6969&amp;tr=udp%3A%2F%2Fexodus.desync.com%3A6969","seeders":5,"leechers":6,"uploader":"SaM","files":3,"time":1466973205,"description":"ddrbannernew.jpg\r\n\r\n- BollyWooD Movie-\r\n\r\nKi &amp; Ka\r\n\r\nHQ 1080P / DTS-HDMA 5.1\r\n\r\nEnglish &amp; Arabic subtitle(s) \r\n \nhttp://extraimago.com/image/a5ZO \nhttp://extraimago.com/image/a5ZS \nhttp://extraimago.com/image/a5Zq \nhttp://extraimago.com/image/a5Zy \nhttp://extraimago.com/image/a5ZL \nhttp://extraimago.com/image/a5ZQ \nhttp://extraimago.com/image/a5ZR \nhttp://extraimago.com/image/a5Zm \nhttp://extraimago.com/image/a5Zi \nhttp://extraimago.com/image/a5Zl \nhttp://extraimago.com/image/a5ZI \nhttp://extraimago.com/image/a5Zd \nhttp://extraimago.com/image/a5Zh \nhttp://extraimago.com/image/a5Zb \nhttp://extraimago.com/image/a5Z3\r\n\r\nSource : *** DDR Blu-ray ***\r\nFormat : Matroska\r\nFile size : 12.3 GiB\r\nDuration : 2h 3mn\r\nOverall bit rate : 14.3 Mbps\r\nEncoded date : UTC 2016-06-25 14:25:32\r\n\r\nVideo\r\nFormat : AVC\r\nFormat/Info : Advanced Video Codec\r\nFormat profile :   \r\nFormat settings, CABAC : Yes\r\nWidth : 1 920 pixels\r\nHeight : 816 pixels\r\nDisplay aspect ratio : 2.35:1\r\nFrame rate mode : Constant\r\nFrame rate : 24.000 fps\r\nColor space : YUV\r\nChroma subsampling : 4:2:0\r\nBit depth : 8 bits\r\nScan type : Progressive\r\nBits/(Pixel*Frame) : 0.266\r\nStream size : 8.62 GiB (70%)\r\nColor primaries : BT.709\r\n\r\nAudio\r\nFormat : DTS\r\nFormat/Info : Digital Theater Systems\r\nFormat profile : MA / ES Discrete / Core\r\nDuration : 2h 3mn\r\nBit rate mode : Variable / Constant\r\nBit rate : 4 249 Kbps / 1 509 Kbps\r\nChannel(s) : 6 channels\r\nChannel positions : Front: L C R, Side: L R, LFE\r\nSampling rate : 48.0 KHz\r\nFrame rate : 93.750 fps (512 spf)\r\nBit depth : 24 bits\r\nCompression mode : Lossless / Lossy\r\nStream size : 3.67 GiB (30%)\r\nLanguage : Hindi\r\nDefault : Yes\r\nForced : No\r\n\r\nChapters : YES\r\n\r\nSample : Included\r\n\r\nA DDR 8th Anniversary Release","torrent":{"xt":"urn:btih:3d4b62c796f39d0fff830e3a08b5bf6d5899b645","amp;dn":"Ki+And+Ka+%282016%29+HQ1080p+Blu-ray+x264+DTS-HDMA+5.1+MSubs+-DDR","amp;tr":["udp%3A%2F%2Ftracker.leechers-paradise.org%3A6969","udp%3A%2F%2Fzer0day.ch%3A1337","udp%3A%2F%2Fopen.demonii.com%3A1337","udp%3A%2F%2Ftracker.coppersurfer.tk%3A6969","udp%3A%2F%2Fexodus.desync.com%3A6969"],"infoHash":"3d4b62c796f39d0fff830e3a08b5bf6d5899b645","infoHashBuffer":{"type":"Buffer","data":[61,75,98,199,150,243,157,15,255,131,14,58,8,181,191,109,88,153,182,69]},"announce":[],"urlList":[]}}